<?xml version="1.0" encoding="utf-8"?>
<!-- Generator: Adobe Illustrator 26.0.3, SVG Export Plug-In . SVG Version: 6.00 Build 0)  -->
<svg version="1.1" id="Capa_1" xmlns="http://www.w3.org/2000/svg" xmlns:xlink="http://www.w3.org/1999/xlink" x="0px" y="0px"
	 viewBox="0 0 20 24" style="enable-background:new 0 0 20 24;" xml:space="preserve">
<style type="text/css">
	.st0{fill-rule:evenodd;clip-rule:evenodd;fill:#FC462D;}
</style>
<path class="st0" d="M4.6,4.7C6.1,3.3,8,2.5,10,2.5c2,0,3.9,0.8,5.4,2.2c1.4,1.4,2.2,3.4,2.2,5.4c0,2.9-1.9,5.8-4,8
	c-1,1.1-2.1,2-2.8,2.6c-0.3,0.2-0.5,0.4-0.7,0.6c-0.2-0.1-0.5-0.3-0.7-0.6c-0.8-0.6-1.8-1.5-2.8-2.6c-2.1-2.2-4-5.1-4-8
	C2.4,8.1,3.2,6.2,4.6,4.7z M9.5,23.2c0,0,0,0,0.5-0.8L9.5,23.2c0.3,0.2,0.7,0.2,1.1,0L10,22.4c0.5,0.8,0.5,0.8,0.5,0.8l0,0l0,0l0,0
	l0,0c0,0,0,0,0.1-0.1c0.1,0,0.2-0.1,0.3-0.2c0.2-0.2,0.6-0.4,1-0.8c0.8-0.7,1.9-1.6,3-2.8c2.2-2.3,4.5-5.6,4.5-9.3
	c0-2.5-1-4.9-2.8-6.7c-1.8-1.8-4.2-2.8-6.7-2.8c-2.5,0-4.9,1-6.7,2.8c-1.8,1.8-2.8,4.2-2.8,6.7c0,3.7,2.4,7,4.5,9.3
	c1.1,1.2,2.2,2.1,3,2.8c0.4,0.3,0.8,0.6,1,0.8c0.1,0.1,0.2,0.2,0.3,0.2C9.4,23.2,9.4,23.2,9.5,23.2L9.5,23.2L9.5,23.2L9.5,23.2
	L9.5,23.2z M8.1,10.1c0-1,0.9-1.9,1.9-1.9c1,0,1.9,0.9,1.9,1.9c0,1-0.9,1.9-1.9,1.9C9,12,8.1,11.1,8.1,10.1z M10,6.3
	c-2.1,0-3.8,1.7-3.8,3.8c0,2.1,1.7,3.8,3.8,3.8c2.1,0,3.8-1.7,3.8-3.8C13.8,8,12.1,6.3,10,6.3z"/>
</svg>
